<svg width="30.000000" height="30.104004" viewBox="0 0 30 30.104" fill="none" xmlns="http://www.w3.org/2000/svg" xmlns:xlink="http://www.w3.org/1999/xlink">
	<desc>
			Created with Pixso.
	</desc>
	<defs>
		<clipPath id="clip62_71">
			<rect id="ic:round-email" width="30.000000" height="30.104239" fill="white" fill-opacity="0"/>
		</clipPath>
	</defs>
	<rect id="ic:round-email" width="30.000000" height="30.104239" fill="#FFFFFF" fill-opacity="0"/>
	<g clip-path="url(#clip62_71)">
		<path id="Vector" d="M25 5.01L5 5.01C3.62 5.01 2.51 6.14 2.51 7.52L2.5 22.57C2.5 23.95 3.62 25.08 5 25.08L25 25.08C26.37 25.08 27.5 23.95 27.5 22.57L27.5 7.52C27.5 6.14 26.37 5.01 25 5.01ZM24.5 10.34L15.66 15.89C15.26 16.14 14.73 16.14 14.33 15.89L5.5 10.34C5.37 10.27 5.26 10.18 5.17 10.06C5.08 9.95 5.02 9.82 4.99 9.68C4.95 9.54 4.94 9.39 4.97 9.25C4.99 9.11 5.04 8.97 5.11 8.85C5.19 8.73 5.29 8.62 5.41 8.54C5.53 8.46 5.66 8.4 5.8 8.37C5.94 8.34 6.09 8.34 6.23 8.37C6.37 8.4 6.5 8.45 6.62 8.54L15 13.79L23.37 8.54C23.49 8.45 23.62 8.4 23.76 8.37C23.9 8.34 24.05 8.34 24.19 8.37C24.33 8.4 24.46 8.46 24.58 8.54C24.7 8.62 24.8 8.73 24.88 8.85C24.95 8.97 25 9.11 25.02 9.25C25.05 9.39 25.04 9.54 25 9.68C24.97 9.82 24.91 9.95 24.82 10.06C24.73 10.18 24.62 10.27 24.5 10.34Z" fill="#55549D" fill-opacity="1.000000" fill-rule="nonzero"/>
	</g>
</svg>
