<svg width="30.000000" height="30.104004" viewBox="0 0 30 30.104" fill="none" xmlns="http://www.w3.org/2000/svg" xmlns:xlink="http://www.w3.org/1999/xlink">
	<desc>
			Created with Pixso.
	</desc>
	<defs>
		<clipPath id="clip62_68">
			<rect id="carbon:location" width="30.000000" height="30.104239" fill="white" fill-opacity="0"/>
		</clipPath>
	</defs>
	<rect id="carbon:location" width="30.000000" height="30.104239" fill="#FFFFFF" fill-opacity="0"/>
	<g clip-path="url(#clip62_68)">
		<path id="Vector" d="M15 16.93C14.07 16.93 13.16 16.65 12.39 16.14C11.62 15.62 11.02 14.88 10.66 14.02C10.31 13.17 10.22 12.22 10.4 11.31C10.58 10.39 11.02 9.56 11.68 8.9C12.34 8.24 13.17 7.79 14.08 7.61C14.99 7.43 15.93 7.52 16.79 7.88C17.65 8.23 18.38 8.84 18.89 9.61C19.41 10.39 19.68 11.29 19.68 12.22C19.68 13.47 19.19 14.67 18.31 15.55C17.43 16.43 16.24 16.93 15 16.93ZM15 9.4C14.44 9.4 13.89 9.57 13.43 9.88C12.97 10.19 12.61 10.63 12.4 11.14C12.18 11.66 12.13 12.23 12.24 12.78C12.35 13.32 12.61 13.83 13.01 14.22C13.4 14.62 13.9 14.88 14.45 14.99C14.99 15.1 15.56 15.05 16.07 14.83C16.59 14.62 17.02 14.26 17.33 13.79C17.64 13.33 17.81 12.78 17.81 12.22C17.81 11.48 17.51 10.76 16.98 10.23C16.46 9.7 15.74 9.4 15 9.4Z" fill="#55549D" fill-opacity="1.000000" fill-rule="nonzero"/>
		<path id="Vector" d="M15 28.22L7.09 18.86C6.98 18.72 6.87 18.58 6.76 18.43C5.41 16.65 4.68 14.47 4.68 12.22C4.68 9.48 5.77 6.85 7.7 4.91C9.64 2.97 12.26 1.88 15 1.88C17.73 1.88 20.35 2.97 22.29 4.91C24.22 6.85 25.31 9.48 25.31 12.22C25.31 14.47 24.58 16.65 23.23 18.43L23.23 18.43C23.23 18.43 22.95 18.8 22.91 18.85L15 28.22ZM8.26 17.3C8.26 17.3 8.48 17.59 8.53 17.65L15 25.31L21.47 17.64C21.51 17.59 21.73 17.3 21.73 17.3C22.84 15.84 23.43 14.06 23.43 12.22C23.43 9.98 22.54 7.83 20.96 6.24C19.38 4.65 17.23 3.76 15 3.76C12.76 3.76 10.61 4.65 9.03 6.24C7.45 7.83 6.56 9.98 6.56 12.22C6.56 14.06 7.15 15.84 8.26 17.3L8.26 17.3Z" fill="#55549D" fill-opacity="1.000000" fill-rule="nonzero"/>
	</g>
</svg>
