<svg width="295.000000" height="72.000000" viewBox="0 0 295 72" fill="none" xmlns="http://www.w3.org/2000/svg" xmlns:xlink="http://www.w3.org/1999/xlink">
	<desc>
			Created with Pixso.
	</desc>
	<defs/>
	<path id="Dance" d="M192.04 37.41Q193.43 34.11 193.43 29.68Q193.43 25.24 192.04 21.93Q191.08 19.67 189.45 18.1Q188.7 17.39 187.82 16.82Q184.99 14.99 180.76 14.99Q175.57 14.99 172.54 17.55Q172.16 17.87 171.81 18.23Q171.65 18.41 171.49 18.58Q168.69 21.77 168.16 26.95L162.11 26.95L162.11 15.43L157 15.43L157 44L162.11 44L162.11 31.32L168.08 31.32Q168.31 35.27 169.77 38.21Q170.65 39.98 171.99 41.27Q172.88 42.13 173.97 42.77Q176.71 44.4 180.76 44.4Q184.99 44.4 187.82 42.56Q188.73 41.96 189.49 41.22Q191.09 39.65 192.04 37.41ZM18.75 36.44L21.35 44L26.79 44L16.31 15.31L10.47 15.31L0 44L5.43 44L7.99 36.44L18.75 36.44ZM80.15 36.44L82.75 44L88.19 44L77.71 15.31L71.87 15.31L61.4 44L66.83 44L69.39 36.44L80.15 36.44ZM51.58 17.03Q48.72 15.43 43.16 15.43L34.56 15.43L34.56 44L45 44Q49.75 44 52.5 41.84Q53.49 41.06 54.12 40.05Q55.24 38.27 55.24 35.79Q55.24 33.56 54.5 32.18Q53.97 31.19 53.17 30.54Q52.85 30.27 52.48 30.06Q51.2 29.32 49.63 29.03L49.63 28.84Q51.29 28.55 52.4 27.62Q52.84 27.24 53.2 26.76Q53.31 26.61 53.41 26.45Q54.44 24.86 54.44 22.6Q54.44 19.9 53.11 18.3Q52.49 17.54 51.58 17.03ZM113.63 44L118.76 44L118.76 15.43L113.63 15.43L113.63 26.95L101.07 26.95L101.07 15.43L95.96 15.43L95.96 44L101.07 44L101.07 31.32L113.63 31.32L113.63 44ZM135.31 44L140.44 44L140.44 19.76L148.63 19.76L148.63 15.43L127.12 15.43L127.12 19.76L135.31 19.76L135.31 44ZM220.14 17.75Q217.6 15.43 212.03 15.43L203.52 15.43L203.52 44L208.63 44L208.63 33.48L211.48 33.48Q215.67 33.48 218.14 32.18Q220.31 31.03 221.37 29.23Q221.51 28.99 221.63 28.74Q222.04 27.9 222.29 27.01Q222.68 25.63 222.68 24.15Q222.68 21.1 221.25 19.03Q220.77 18.34 220.14 17.75ZM236.91 15.43L232.28 15.43L232.28 44L238.31 44L252.51 21.4L252.68 21.4Q252.64 21.88 252.55 23.28Q252.47 24.68 252.39 26.42Q252.32 28.16 252.32 29.59L252.32 44L256.95 44L256.95 15.43L250.96 15.43L236.8 37.83L236.63 37.83Q236.72 37.35 236.78 35.98Q236.84 34.59 236.88 32.93Q236.91 31.27 236.91 29.95L236.91 15.43ZM286.03 44L291.16 44L291.16 15.43L286.03 15.43L286.03 26.95L273.47 26.95L273.47 15.43L268.36 15.43L268.36 44L273.47 44L273.47 31.32L286.03 31.32L286.03 44ZM175.13 37.28Q173.35 34.51 173.35 29.68Q173.35 24.83 175.13 22.08Q175.71 21.18 176.51 20.58Q178.18 19.32 180.8 19.32Q183.36 19.32 184.99 20.55Q185.8 21.17 186.37 22.08Q188.12 24.83 188.12 29.68Q188.12 34.51 186.35 37.28Q185.79 38.16 185.01 38.76Q183.35 40.03 180.72 40.03Q178.22 40.03 176.59 38.84Q175.74 38.22 175.13 37.28ZM14.48 23.16Q14.8 24.11 14.96 24.68L17.44 32.03L9.4 32.03L11.92 24.68Q12.04 24.19 12.31 23.27Q12.59 22.35 12.9 21.32Q13.2 20.27 13.39 19.47Q13.56 20.16 13.85 21.18Q14.16 22.2 14.48 23.16ZM75.88 23.16Q76.2 24.11 76.36 24.68L78.84 32.03L70.8 32.03L73.32 24.68Q73.44 24.19 73.71 23.27Q73.99 22.35 74.3 21.32Q74.6 20.27 74.79 19.47Q74.96 20.16 75.25 21.18Q75.56 22.2 75.88 23.16ZM48.01 26.11Q46.87 27.07 43.83 27.07L39.67 27.07L39.67 19.68L43.43 19.68Q46.39 19.68 47.77 20.52Q48.23 20.8 48.54 21.19Q49.16 21.99 49.16 23.27Q49.16 24.79 48.41 25.71Q48.23 25.93 48.01 26.11ZM208.63 19.68L211.72 19.68Q214.68 19.68 216.07 20.84Q216.3 21.03 216.49 21.25Q217.47 22.38 217.47 24.36Q217.47 26.32 216.5 27.45Q216.19 27.82 215.77 28.1Q214.07 29.24 210.96 29.24L208.63 29.24L208.63 19.68ZM39.67 39.72L39.67 31.19L44.08 31.19Q47.36 31.19 48.62 32.33Q49.1 32.77 49.4 33.32Q49.88 34.18 49.88 35.31Q49.88 36.82 49.19 37.87Q48.96 38.22 48.66 38.52Q47.44 39.72 44.31 39.72L39.67 39.72Z" fill="#C0BFC4" fill-opacity="1.000000" fill-rule="evenodd"/>
	<path id="СТУДИЯ ТАНЦА" d="M177.65 56.59Q178.36 56.14 179.35 56.14Q179.57 56.14 179.8 56.16Q180.24 56.21 180.67 56.35Q181.32 56.57 181.93 56.84L182.63 55.16Q181.89 54.81 181.05 54.61Q180.63 54.51 180.21 54.46Q179.78 54.41 179.35 54.41Q177.6 54.41 176.39 55.17Q175.89 55.48 175.49 55.89Q174.93 56.46 174.56 57.24Q173.94 58.55 173.94 60.28Q173.94 62.06 174.5 63.38Q174.86 64.22 175.45 64.82Q175.79 65.16 176.21 65.43Q177.36 66.16 179.12 66.16Q180.05 66.16 180.76 66.03Q181.48 65.9 182.18 65.61L182.18 63.87Q181.43 64.12 180.74 64.28Q180.69 64.29 180.64 64.3Q180 64.43 179.33 64.43Q178.11 64.43 177.35 63.83Q177.08 63.62 176.87 63.33Q176.07 62.23 176.07 60.3Q176.07 58.38 176.92 57.26Q177.24 56.85 177.65 56.59ZM256.24 62.97L257.28 66L259.46 66L255.27 54.52L252.93 54.52L248.74 66L250.92 66L251.94 62.97L256.24 62.97ZM291.33 62.97L292.37 66L294.55 66L290.35 54.52L288.02 54.52L283.83 66L286 66L287.03 62.97L291.33 62.97ZM186.69 66L188.74 66L188.74 56.3L192.02 56.3L192.02 54.57L183.41 54.57L183.41 56.3L186.69 56.3L186.69 66ZM198.05 64.58Q198.58 63.8 199.08 62.68L202.64 54.57L200.51 54.57L198.24 59.95Q198.13 60.23 197.98 60.62Q197.83 61 197.75 61.24L197.67 61.24Q197.59 60.97 197.42 60.6Q197.25 60.23 197.15 60.03L194.63 54.57L192.44 54.57L196.56 62.89Q196.28 63.61 195.85 64Q195.43 64.38 194.6 64.38Q194.2 64.38 193.76 64.31Q193.33 64.23 192.98 64.07L192.98 65.92Q193.37 66.03 193.82 66.09Q194.28 66.16 194.71 66.16Q195.96 66.16 196.74 65.76Q196.94 65.65 197.13 65.52Q197.66 65.15 198.05 64.58ZM211.8 64.25L211.8 54.57L205.67 54.57Q205.36 57.5 204.59 59.95Q203.81 62.39 202.8 64.25L201.92 64.25L201.92 69.19L203.91 69.19L203.91 66L211.32 66L211.32 69.19L213.3 69.19L213.3 64.25L211.8 64.25ZM216.96 54.57L215.11 54.57L215.11 66L217.52 66L223.2 56.96L223.27 56.96Q223.25 57.15 223.22 57.71Q223.19 58.27 223.15 58.96Q223.12 59.66 223.12 60.23L223.12 66L224.98 66L224.98 54.57L222.58 54.57L216.92 63.53L216.85 63.53Q216.89 63.34 216.91 62.79Q216.93 62.23 216.95 61.57Q216.96 60.91 216.96 60.38L216.96 54.57ZM228.83 66L231.62 61.48L233.41 61.48L233.41 66L235.46 66L235.46 54.57L231.94 54.57Q229.84 54.57 228.74 55.4Q228.36 55.68 228.11 56.05Q227.64 56.77 227.64 57.8Q227.64 58.78 227.95 59.41Q228.26 60.04 228.76 60.42Q229.25 60.8 229.76 60.99L226.53 66L228.83 66ZM244.27 66L246.33 66L246.33 56.3L249.6 56.3L249.6 54.57L241 54.57L241 56.3L244.27 56.3L244.27 66ZM268.03 66L270.08 66L270.08 54.57L268.03 54.57L268.03 59.18L263.01 59.18L263.01 54.57L260.96 54.57L260.96 66L263.01 66L263.01 60.92L268.03 60.92L268.03 66ZM283.51 69.19L283.51 64.32L281.92 64.32L281.92 54.57L279.88 54.57L279.88 64.25L275.11 64.25L275.11 54.57L273.06 54.57L273.06 66L281.52 66L281.52 69.19L283.51 69.19ZM254.53 57.66Q254.66 58.04 254.72 58.27L255.72 61.21L252.5 61.21L253.51 58.27Q253.56 58.07 253.67 57.71Q253.78 57.34 253.9 56.92Q254.02 56.51 254.1 56.19Q254.17 56.46 254.28 56.87Q254.4 57.28 254.53 57.66ZM289.62 57.66Q289.75 58.04 289.81 58.27L290.8 61.21L287.59 61.21L288.6 58.27Q288.64 58.07 288.75 57.71Q288.87 57.34 288.99 56.92Q289.11 56.51 289.19 56.19Q289.25 56.46 289.37 56.87Q289.49 57.28 289.62 57.66ZM230.31 56.66Q230.9 56.27 232 56.27L233.41 56.27L233.41 59.79L232.07 59.79Q230.87 59.79 230.29 59.3Q230.11 59.15 229.99 58.96Q229.72 58.54 229.72 57.95Q229.72 57.27 230.05 56.88Q230.16 56.76 230.31 56.66ZM207.02 58.2Q207.23 57.18 207.33 56.32L209.77 56.32L209.77 64.25L204.96 64.25Q205.39 63.4 205.78 62.39Q206.16 61.37 206.48 60.3Q206.8 59.23 207.02 58.2Z" fill="#C0BFC4" fill-opacity="1.000000" fill-rule="evenodd"/>
</svg>
