<svg width="30.000000" height="30.104004" viewBox="0 0 30 30.104" fill="none" xmlns="http://www.w3.org/2000/svg" xmlns:xlink="http://www.w3.org/1999/xlink">
	<desc>
			Created with Pixso.
	</desc>
	<defs>
		<clipPath id="clip62_66">
			<rect id="bxs:phone" width="30.000000" height="30.104239" fill="white" fill-opacity="0"/>
		</clipPath>
	</defs>
	<rect id="bxs:phone" width="30.000000" height="30.104239" fill="#FFFFFF" fill-opacity="0"/>
	<g clip-path="url(#clip62_66)">
		<path id="Vector" d="M25.6 21.49L20.52 16.86C20.28 16.64 19.97 16.52 19.64 16.53C19.32 16.54 19.01 16.68 18.78 16.91L15.79 20C15.07 19.86 13.63 19.41 12.14 17.92C10.65 16.42 10.19 14.96 10.06 14.25L13.13 11.24C13.37 11.02 13.5 10.71 13.51 10.38C13.52 10.06 13.41 9.74 13.19 9.5L8.57 4.4C8.35 4.16 8.05 4.01 7.72 3.99C7.4 3.97 7.08 4.08 6.83 4.29L4.12 6.63C3.9 6.84 3.77 7.13 3.76 7.44C3.74 7.75 3.38 15.18 9.12 20.94C14.13 25.97 20.4 26.34 22.13 26.34C22.38 26.34 22.53 26.33 22.58 26.33C22.88 26.31 23.17 26.18 23.39 25.96L25.71 23.24C25.92 22.99 26.03 22.67 26.01 22.34C25.99 22.02 25.84 21.71 25.6 21.49Z" fill="#55549D" fill-opacity="1.000000" fill-rule="nonzero"/>
	</g>
</svg>
